<?xml version="1.0" encoding="UTF-8"?><svg id="Layer_1" xmlns="http://www.w3.org/2000/svg" viewBox="0 0 262.4 82"><defs><style>.cls-1{font-size:26px;}.cls-1,.cls-2{font-family:Candara, Candara;}.cls-3{fill:none;stroke:#1a1a1a;stroke-miterlimit:10;stroke-width:10px;}.cls-4{fill:#1a1a1a;}.cls-5{letter-spacing:-.03em;}.cls-2{font-size:44px;}</style></defs><path class="cls-4" d="m46.38,59.9c-4.47,1.25-8.2,1.88-11.2,1.88-6.45,0-11.35-1.94-14.68-5.82-3.33-3.88-5-8.58-5-14.12,0-5.82,1.82-10.88,5.45-15.18,3.63-4.3,8.66-6.45,15.1-6.45,3.02,0,5.69.3,7.99.9l-.93,7.28c-2.95-.84-5.59-1.27-7.94-1.27-3.96,0-6.91,1.33-8.87,4-1.95,2.66-2.93,5.92-2.93,9.77s1.09,7.36,3.28,10.28c2.19,2.92,5.2,4.38,9.05,4.38,1.07,0,2.31-.12,3.72-.37-.28-2.28-.15-4.53-.15-6.73s-.18-4.72-.58-7.5h7.68c-.15,3.17-.23,6.36-.23,9.57,0,2.33.08,5.45.23,9.38Z"/><path class="cls-4" d="m44.85,50.52c0-3.21-.08-6.4-.23-9.57h7.53c-.39,2.78-.5,5.28-.5,7.5,0,2.2.2,4.44-.08,6.73,1.41.25,2.65.37,3.72.37,3.85,0,6.86-1.46,9.05-4.38,2.19-2.92,3.28-6.35,3.28-10.28,0-3.85-.98-7.1-2.93-9.77-1.95-2.66-4.91-4-8.87-4-2.35,0-4.99.42-7.94,1.27l-.93-7.28c2.31-.6,4.97-.9,7.99-.9,6.44,0,11.47,2.15,15.1,6.45,3.63,4.3,5.45,9.36,5.45,15.18,0,5.53-1.67,10.24-5,14.12-3.33,3.88-8.22,5.82-14.68,5.82-3,0-6.74-.63-11.2-1.88.15-3.93.23-7.06.23-9.38Z"/><rect class="cls-3" x="5" y="5" width="81" height="72"/><text class="cls-2" transform="translate(104 41) scale(1.04 1)"><tspan x="0" y="0">Gabe Gil</tspan></text><text class="cls-1" transform="translate(113 68) scale(1.1 1)"><tspan class="cls-5" x="0" y="0">W</tspan><tspan x="22.29" y="0">eb Design</tspan></text></svg>